<svg xmlns="http://www.w3.org/2000/svg" version="1.1" xmlns:xlink="http://www.w3.org/1999/xlink" xmlns:svgjs="http://svgjs.dev/svgjs" width="64" height="64"><svg xmlns="http://www.w3.org/2000/svg" xmlns:xlink="http://www.w3.org/1999/xlink" width="64" zoomAndPan="magnify" viewBox="0 0 48 48" height="64" preserveAspectRatio="xMidYMid meet" version="1.0"><defs><clipPath id="SvgjsClipPath1021"><path d="M 7.871094 4.703125 L 40.199219 4.703125 L 40.199219 42.171875 L 7.871094 42.171875 Z M 7.871094 4.703125 " clip-rule="nonzero"></path></clipPath></defs><g clip-path="url(#f4315312aa)"><path fill="#000000" d="M 24.035156 4.703125 C 18.132812 4.703125 14.496094 6.949219 12.632812 10.074219 C 10.769531 13.191406 10.570312 16.945312 10.570312 20.089844 C 10.570312 20.113281 10.570312 20.132812 10.570312 20.152344 C 10.570312 20.183594 10.570312 20.226562 10.570312 20.257812 C 10.570312 21.03125 10.625 21.710938 10.695312 22.328125 C 9.066406 22.839844 7.878906 24.347656 7.878906 26.113281 C 7.878906 28.246094 9.488281 31.464844 11.917969 31.464844 C 12.128906 31.464844 12.347656 31.445312 12.570312 31.425781 C 14.546875 37.519531 19.429688 42.171875 24.035156 42.171875 C 28.578125 42.171875 33.417969 37.613281 35.492188 31.425781 C 35.722656 31.445312 35.941406 31.464844 36.152344 31.464844 C 38.582031 31.464844 40.191406 28.246094 40.191406 26.113281 C 40.191406 24.355469 39.015625 22.851562 37.375 22.328125 C 37.445312 21.710938 37.5 21.042969 37.5 20.257812 C 37.5 20.226562 37.5 20.207031 37.5 20.175781 C 37.5 20.152344 37.5 20.121094 37.5 20.089844 C 37.5 16.945312 37.300781 13.191406 35.4375 10.074219 C 33.578125 6.949219 29.9375 4.703125 24.035156 4.703125 Z M 24.035156 7.378906 C 29.304688 7.378906 31.714844 9.070312 33.125 11.433594 C 34.195312 13.234375 34.523438 15.585938 34.660156 17.9375 C 32.535156 16.902344 28.980469 15.40625 24.035156 15.40625 C 19.089844 15.40625 15.535156 16.902344 13.410156 17.9375 C 13.546875 15.585938 13.875 13.234375 14.945312 11.433594 C 16.355469 9.070312 18.765625 7.378906 24.035156 7.378906 Z M 24.035156 15.40625 C 24.75 15.40625 25.507812 15.15625 26.011719 14.632812 C 26.519531 14.101562 26.726562 13.398438 26.726562 12.742188 L 24.035156 12.742188 C 24.035156 12.742188 24.035156 12.730469 24.035156 12.730469 L 24.035156 10.066406 C 24.035156 10.066406 24.035156 10.054688 24.035156 10.054688 L 26.726562 10.054688 C 26.726562 9.40625 26.519531 8.695312 26.011719 8.171875 C 25.496094 7.640625 24.75 7.390625 24.035156 7.390625 C 23.320312 7.390625 22.574219 7.640625 22.058594 8.171875 C 21.550781 8.695312 21.34375 9.40625 21.34375 10.054688 L 21.34375 12.742188 C 21.34375 13.398438 21.550781 14.101562 22.058594 14.632812 C 22.5625 15.15625 23.320312 15.40625 24.035156 15.40625 Z M 24.035156 18.082031 C 28.9375 18.082031 33.28125 20.113281 34.773438 20.886719 C 34.691406 22.539062 34.355469 23.300781 34.226562 23.414062 C 34.15625 23.488281 34.144531 23.511719 33.933594 23.519531 C 33.734375 23.519531 33.355469 23.46875 32.871094 23.320312 C 30.957031 22.734375 27.726562 20.761719 24.035156 20.761719 C 20.355469 20.761719 17.125 22.695312 15.199219 23.269531 C 14.726562 23.414062 14.347656 23.46875 14.136719 23.457031 C 13.925781 23.445312 13.90625 23.425781 13.832031 23.363281 C 13.714844 23.25 13.378906 22.496094 13.296875 20.886719 C 14.789062 20.113281 19.132812 18.082031 24.035156 18.082031 Z M 24.035156 23.4375 C 26.695312 23.4375 29.527344 25.097656 32.082031 25.882812 C 32.722656 26.070312 33.367188 26.21875 34.050781 26.1875 C 34.742188 26.15625 35.511719 25.902344 36.078125 25.359375 C 36.238281 25.214844 36.34375 25.035156 36.457031 24.859375 C 37.070312 25.003906 37.5 25.496094 37.5 26.113281 C 37.5 27.210938 36.585938 28.738281 36.152344 28.789062 C 36.046875 28.789062 35.648438 28.777344 34.878906 28.582031 L 33.628906 28.277344 L 33.164062 29.78125 C 31.621094 35.59375 27.191406 39.496094 24.035156 39.496094 C 20.867188 39.496094 16.449219 35.59375 14.90625 29.792969 L 14.453125 28.265625 L 13.199219 28.582031 C 12.421875 28.777344 12.023438 28.789062 11.917969 28.789062 C 11.484375 28.738281 10.570312 27.210938 10.570312 26.113281 C 10.570312 25.484375 11.023438 24.996094 11.632812 24.859375 C 11.75 25.015625 11.855469 25.183594 12 25.320312 C 12.570312 25.851562 13.328125 26.101562 14.019531 26.132812 C 14.703125 26.15625 15.335938 26.03125 15.976562 25.839844 C 18.523438 25.078125 21.363281 23.4375 24.035156 23.4375 Z M 24.035156 23.4375 " fill-opacity="1" fill-rule="nonzero"></path></g></svg><style>@media (prefers-color-scheme: light) { :root { filter: none; } }
@media (prefers-color-scheme: dark) { :root { filter: none; } }
</style></svg>