<svg xmlns="http://www.w3.org/2000/svg" xmlns:xlink="http://www.w3.org/1999/xlink" width="200" zoomAndPan="magnify" viewBox="0 0 150 30.000001" height="40" preserveAspectRatio="xMidYMid meet" version="1.0"><defs><g/><clipPath id="0f96d1ff06"><path d="M 86.894531 8.3125 L 99.960938 8.3125 L 99.960938 23.554688 L 86.894531 23.554688 Z M 86.894531 8.3125 " clip-rule="nonzero"/></clipPath></defs><g fill="#000000" fill-opacity="1"><g transform="translate(9.821072, 22.741935)"><g><path d="M 9.015625 0.34375 C 7.773438 0.34375 6.664062 0.164062 5.6875 -0.1875 C 4.71875 -0.539062 3.894531 -1.066406 3.21875 -1.765625 C 2.539062 -2.460938 2.023438 -3.316406 1.671875 -4.328125 C 1.316406 -5.347656 1.140625 -6.507812 1.140625 -7.8125 C 1.140625 -9.164062 1.316406 -10.363281 1.671875 -11.40625 C 2.035156 -12.445312 2.554688 -13.332031 3.234375 -14.0625 C 3.910156 -14.800781 4.71875 -15.359375 5.65625 -15.734375 C 6.59375 -16.109375 7.640625 -16.296875 8.796875 -16.296875 C 9.703125 -16.296875 10.535156 -16.175781 11.296875 -15.9375 C 12.054688 -15.695312 12.707031 -15.351562 13.25 -14.90625 C 13.800781 -14.46875 14.226562 -13.925781 14.53125 -13.28125 C 14.84375 -12.644531 15 -11.9375 15 -11.15625 L 11.78125 -10.328125 C 11.78125 -11.023438 11.632812 -11.601562 11.34375 -12.0625 C 11.050781 -12.519531 10.671875 -12.863281 10.203125 -13.09375 C 9.734375 -13.332031 9.226562 -13.453125 8.6875 -13.453125 C 8.195312 -13.453125 7.722656 -13.351562 7.265625 -13.15625 C 6.804688 -12.96875 6.382812 -12.65625 6 -12.21875 C 5.625 -11.789062 5.328125 -11.234375 5.109375 -10.546875 C 4.898438 -9.867188 4.796875 -9.03125 4.796875 -8.03125 C 4.796875 -6.738281 4.976562 -5.6875 5.34375 -4.875 C 5.71875 -4.0625 6.226562 -3.460938 6.875 -3.078125 C 7.53125 -2.703125 8.269531 -2.515625 9.09375 -2.515625 C 9.96875 -2.515625 10.648438 -2.695312 11.140625 -3.0625 C 11.628906 -3.425781 11.984375 -3.894531 12.203125 -4.46875 C 12.421875 -5.050781 12.535156 -5.664062 12.546875 -6.3125 L 15.625 -5.828125 C 15.601562 -4.972656 15.476562 -4.171875 15.25 -3.421875 C 15.019531 -2.671875 14.640625 -2.015625 14.109375 -1.453125 C 13.585938 -0.890625 12.90625 -0.445312 12.0625 -0.125 C 11.226562 0.1875 10.210938 0.34375 9.015625 0.34375 Z M 9.015625 0.34375 "/></g></g></g><g fill="#000000" fill-opacity="1"><g transform="translate(26.173324, 22.741935)"><g><path d="M 7.328125 0.34375 C 6.054688 0.34375 4.9375 0.0859375 3.96875 -0.421875 C 3 -0.929688 2.238281 -1.679688 1.6875 -2.671875 C 1.144531 -3.660156 0.875 -4.898438 0.875 -6.390625 C 0.875 -7.867188 1.148438 -9.097656 1.703125 -10.078125 C 2.265625 -11.066406 3.023438 -11.804688 3.984375 -12.296875 C 4.953125 -12.785156 6.054688 -13.03125 7.296875 -13.03125 C 8.578125 -13.03125 9.703125 -12.78125 10.671875 -12.28125 C 11.640625 -11.78125 12.398438 -11.035156 12.953125 -10.046875 C 13.503906 -9.054688 13.78125 -7.820312 13.78125 -6.34375 C 13.78125 -4.820312 13.5 -3.566406 12.9375 -2.578125 C 12.375 -1.597656 11.597656 -0.863281 10.609375 -0.375 C 9.628906 0.101562 8.535156 0.34375 7.328125 0.34375 Z M 7.421875 -2.25 C 7.804688 -2.25 8.164062 -2.3125 8.5 -2.4375 C 8.84375 -2.570312 9.144531 -2.785156 9.40625 -3.078125 C 9.675781 -3.378906 9.890625 -3.785156 10.046875 -4.296875 C 10.203125 -4.804688 10.28125 -5.421875 10.28125 -6.140625 C 10.28125 -6.910156 10.191406 -7.5625 10.015625 -8.09375 C 9.847656 -8.632812 9.625 -9.066406 9.34375 -9.390625 C 9.0625 -9.722656 8.734375 -9.960938 8.359375 -10.109375 C 7.992188 -10.253906 7.609375 -10.328125 7.203125 -10.328125 C 6.835938 -10.328125 6.476562 -10.257812 6.125 -10.125 C 5.78125 -10 5.476562 -9.785156 5.21875 -9.484375 C 4.96875 -9.191406 4.757812 -8.796875 4.59375 -8.296875 C 4.4375 -7.796875 4.359375 -7.175781 4.359375 -6.4375 C 4.359375 -5.65625 4.4375 -5 4.59375 -4.46875 C 4.757812 -3.9375 4.984375 -3.503906 5.265625 -3.171875 C 5.554688 -2.847656 5.890625 -2.613281 6.265625 -2.46875 C 6.640625 -2.320312 7.023438 -2.25 7.421875 -2.25 Z M 7.421875 -2.25 "/></g></g></g><g fill="#000000" fill-opacity="1"><g transform="translate(40.832297, 22.741935)"><g><path d="M 1.546875 4.015625 L 1.546875 -12.703125 L 4.453125 -12.703125 L 4.453125 -9.140625 L 4.859375 -9.09375 C 5.023438 -9.96875 5.285156 -10.695312 5.640625 -11.28125 C 6.003906 -11.875 6.472656 -12.3125 7.046875 -12.59375 C 7.617188 -12.882812 8.296875 -13.03125 9.078125 -13.03125 C 10.179688 -13.03125 11.128906 -12.753906 11.921875 -12.203125 C 12.710938 -11.660156 13.320312 -10.882812 13.75 -9.875 C 14.175781 -8.875 14.390625 -7.675781 14.390625 -6.28125 C 14.390625 -5 14.195312 -3.859375 13.8125 -2.859375 C 13.425781 -1.867188 12.851562 -1.085938 12.09375 -0.515625 C 11.332031 0.0546875 10.390625 0.34375 9.265625 0.34375 C 8.453125 0.34375 7.769531 0.191406 7.21875 -0.109375 C 6.664062 -0.421875 6.203125 -0.863281 5.828125 -1.4375 C 5.453125 -2.007812 5.15625 -2.691406 4.9375 -3.484375 L 4.5 -3.484375 C 4.59375 -3.035156 4.679688 -2.578125 4.765625 -2.109375 C 4.847656 -1.648438 4.910156 -1.203125 4.953125 -0.765625 C 5.003906 -0.335938 5.03125 0.078125 5.03125 0.484375 L 5.03125 4.015625 Z M 8.046875 -2.46875 C 8.617188 -2.46875 9.101562 -2.628906 9.5 -2.953125 C 9.90625 -3.273438 10.21875 -3.722656 10.4375 -4.296875 C 10.65625 -4.867188 10.765625 -5.523438 10.765625 -6.265625 C 10.765625 -7.066406 10.648438 -7.753906 10.421875 -8.328125 C 10.203125 -8.898438 9.878906 -9.34375 9.453125 -9.65625 C 9.035156 -9.976562 8.546875 -10.140625 7.984375 -10.140625 C 7.460938 -10.140625 7.019531 -10.03125 6.65625 -9.8125 C 6.300781 -9.59375 6 -9.296875 5.75 -8.921875 C 5.5 -8.554688 5.316406 -8.160156 5.203125 -7.734375 C 5.085938 -7.316406 5.03125 -6.90625 5.03125 -6.5 L 5.03125 -6.078125 C 5.03125 -5.734375 5.066406 -5.394531 5.140625 -5.0625 C 5.222656 -4.738281 5.347656 -4.421875 5.515625 -4.109375 C 5.691406 -3.804688 5.898438 -3.53125 6.140625 -3.28125 C 6.378906 -3.03125 6.660156 -2.832031 6.984375 -2.6875 C 7.304688 -2.539062 7.660156 -2.46875 8.046875 -2.46875 Z M 8.046875 -2.46875 "/></g></g></g><g fill="#000000" fill-opacity="1"><g transform="translate(56.120205, 22.741935)"><g><path d="M 6.34375 4.328125 C 5.695312 4.328125 5.039062 4.269531 4.375 4.15625 C 3.71875 4.039062 3.09375 3.863281 2.5 3.625 C 1.914062 3.382812 1.421875 3.070312 1.015625 2.6875 L 1.984375 -0.34375 C 2.492188 0.207031 3.132812 0.609375 3.90625 0.859375 C 4.675781 1.117188 5.429688 1.25 6.171875 1.25 C 6.960938 1.25 7.609375 1.113281 8.109375 0.84375 C 8.617188 0.582031 9.015625 0.222656 9.296875 -0.234375 C 9.578125 -0.691406 9.78125 -1.222656 9.90625 -1.828125 C 10.039062 -2.429688 10.117188 -3.070312 10.140625 -3.75 L 10.25 -5.734375 L 9.75 -5.734375 C 9.601562 -4.648438 9.347656 -3.769531 8.984375 -3.09375 C 8.617188 -2.414062 8.15625 -1.921875 7.59375 -1.609375 C 7.039062 -1.296875 6.390625 -1.140625 5.640625 -1.140625 C 4.816406 -1.140625 4.132812 -1.300781 3.59375 -1.625 C 3.050781 -1.957031 2.632812 -2.382812 2.34375 -2.90625 C 2.050781 -3.4375 1.835938 -3.988281 1.703125 -4.5625 C 1.566406 -5.144531 1.484375 -5.691406 1.453125 -6.203125 C 1.429688 -6.722656 1.421875 -7.128906 1.421875 -7.421875 L 1.421875 -12.703125 L 4.90625 -12.703125 L 4.90625 -8.421875 C 4.90625 -8.097656 4.910156 -7.738281 4.921875 -7.34375 C 4.941406 -6.945312 4.976562 -6.554688 5.03125 -6.171875 C 5.09375 -5.785156 5.203125 -5.425781 5.359375 -5.09375 C 5.515625 -4.757812 5.71875 -4.492188 5.96875 -4.296875 C 6.226562 -4.109375 6.5625 -4.015625 6.96875 -4.015625 C 7.5 -4.015625 7.921875 -4.175781 8.234375 -4.5 C 8.546875 -4.820312 8.789062 -5.222656 8.96875 -5.703125 C 9.144531 -6.191406 9.265625 -6.691406 9.328125 -7.203125 C 9.398438 -7.722656 9.441406 -8.164062 9.453125 -8.53125 L 9.453125 -12.703125 L 12.9375 -12.703125 L 12.9375 -3.609375 C 12.9375 -3.148438 12.910156 -2.640625 12.859375 -2.078125 C 12.816406 -1.523438 12.726562 -0.953125 12.59375 -0.359375 C 12.457031 0.234375 12.238281 0.804688 11.9375 1.359375 C 11.632812 1.921875 11.238281 2.425781 10.75 2.875 C 10.269531 3.332031 9.664062 3.6875 8.9375 3.9375 C 8.21875 4.195312 7.351562 4.328125 6.34375 4.328125 Z M 6.34375 4.328125 "/></g></g></g><g fill="#000000" fill-opacity="1"><g transform="translate(70.561467, 22.741935)"><g><path d="M 9.015625 0.34375 C 7.773438 0.34375 6.664062 0.164062 5.6875 -0.1875 C 4.71875 -0.539062 3.894531 -1.066406 3.21875 -1.765625 C 2.539062 -2.460938 2.023438 -3.316406 1.671875 -4.328125 C 1.316406 -5.347656 1.140625 -6.507812 1.140625 -7.8125 C 1.140625 -9.164062 1.316406 -10.363281 1.671875 -11.40625 C 2.035156 -12.445312 2.554688 -13.332031 3.234375 -14.0625 C 3.910156 -14.800781 4.71875 -15.359375 5.65625 -15.734375 C 6.59375 -16.109375 7.640625 -16.296875 8.796875 -16.296875 C 9.703125 -16.296875 10.535156 -16.175781 11.296875 -15.9375 C 12.054688 -15.695312 12.707031 -15.351562 13.25 -14.90625 C 13.800781 -14.46875 14.226562 -13.925781 14.53125 -13.28125 C 14.84375 -12.644531 15 -11.9375 15 -11.15625 L 11.78125 -10.328125 C 11.78125 -11.023438 11.632812 -11.601562 11.34375 -12.0625 C 11.050781 -12.519531 10.671875 -12.863281 10.203125 -13.09375 C 9.734375 -13.332031 9.226562 -13.453125 8.6875 -13.453125 C 8.195312 -13.453125 7.722656 -13.351562 7.265625 -13.15625 C 6.804688 -12.96875 6.382812 -12.65625 6 -12.21875 C 5.625 -11.789062 5.328125 -11.234375 5.109375 -10.546875 C 4.898438 -9.867188 4.796875 -9.03125 4.796875 -8.03125 C 4.796875 -6.738281 4.976562 -5.6875 5.34375 -4.875 C 5.71875 -4.0625 6.226562 -3.460938 6.875 -3.078125 C 7.53125 -2.703125 8.269531 -2.515625 9.09375 -2.515625 C 9.96875 -2.515625 10.648438 -2.695312 11.140625 -3.0625 C 11.628906 -3.425781 11.984375 -3.894531 12.203125 -4.46875 C 12.421875 -5.050781 12.535156 -5.664062 12.546875 -6.3125 L 15.625 -5.828125 C 15.601562 -4.972656 15.476562 -4.171875 15.25 -3.421875 C 15.019531 -2.671875 14.640625 -2.015625 14.109375 -1.453125 C 13.585938 -0.890625 12.90625 -0.445312 12.0625 -0.125 C 11.226562 0.1875 10.210938 0.34375 9.015625 0.34375 Z M 9.015625 0.34375 "/></g></g></g><g fill="#000000" fill-opacity="1"><g transform="translate(99.909759, 22.258069)"><g><path d="M 4.546875 0.34375 C 3.835938 0.34375 3.207031 0.207031 2.65625 -0.0625 C 2.113281 -0.34375 1.679688 -0.742188 1.359375 -1.265625 C 1.046875 -1.796875 0.890625 -2.4375 0.890625 -3.1875 C 0.890625 -4.070312 1.085938 -4.773438 1.484375 -5.296875 C 1.878906 -5.816406 2.382812 -6.210938 3 -6.484375 C 3.625 -6.753906 4.28125 -6.945312 4.96875 -7.0625 C 5.664062 -7.1875 6.316406 -7.289062 6.921875 -7.375 C 7.460938 -7.457031 7.898438 -7.539062 8.234375 -7.625 C 8.578125 -7.71875 8.828125 -7.847656 8.984375 -8.015625 C 9.140625 -8.179688 9.21875 -8.410156 9.21875 -8.703125 C 9.21875 -9.023438 9.144531 -9.304688 9 -9.546875 C 8.851562 -9.796875 8.632812 -9.992188 8.34375 -10.140625 C 8.050781 -10.296875 7.671875 -10.375 7.203125 -10.375 C 6.753906 -10.375 6.328125 -10.289062 5.921875 -10.125 C 5.523438 -9.96875 5.179688 -9.722656 4.890625 -9.390625 C 4.609375 -9.066406 4.421875 -8.65625 4.328125 -8.15625 L 1.234375 -9.015625 C 1.410156 -9.710938 1.679688 -10.3125 2.046875 -10.8125 C 2.410156 -11.3125 2.847656 -11.722656 3.359375 -12.046875 C 3.878906 -12.378906 4.460938 -12.625 5.109375 -12.78125 C 5.753906 -12.945312 6.453125 -13.03125 7.203125 -13.03125 C 8.191406 -13.03125 9.03125 -12.910156 9.71875 -12.671875 C 10.414062 -12.429688 10.976562 -12.066406 11.40625 -11.578125 C 11.832031 -11.085938 12.144531 -10.488281 12.34375 -9.78125 C 12.550781 -9.082031 12.65625 -8.28125 12.65625 -7.375 L 12.65625 -5.203125 C 12.65625 -4.648438 12.660156 -4.078125 12.671875 -3.484375 C 12.691406 -2.898438 12.71875 -2.316406 12.75 -1.734375 C 12.789062 -1.160156 12.835938 -0.582031 12.890625 0 L 9.8125 0 C 9.769531 -0.4375 9.71875 -0.914062 9.65625 -1.4375 C 9.601562 -1.957031 9.566406 -2.492188 9.546875 -3.046875 L 9.140625 -3.046875 C 8.910156 -2.429688 8.585938 -1.863281 8.171875 -1.34375 C 7.753906 -0.820312 7.238281 -0.410156 6.625 -0.109375 C 6.007812 0.191406 5.316406 0.34375 4.546875 0.34375 Z M 6.015625 -2.203125 C 6.328125 -2.203125 6.640625 -2.253906 6.953125 -2.359375 C 7.265625 -2.460938 7.570312 -2.617188 7.875 -2.828125 C 8.175781 -3.035156 8.453125 -3.300781 8.703125 -3.625 C 8.953125 -3.945312 9.144531 -4.3125 9.28125 -4.71875 L 9.234375 -6.625 L 9.796875 -6.53125 C 9.523438 -6.320312 9.195312 -6.15625 8.8125 -6.03125 C 8.4375 -5.914062 8.039062 -5.820312 7.625 -5.75 C 7.21875 -5.6875 6.8125 -5.613281 6.40625 -5.53125 C 6.007812 -5.457031 5.648438 -5.351562 5.328125 -5.21875 C 5.003906 -5.09375 4.742188 -4.914062 4.546875 -4.6875 C 4.347656 -4.46875 4.25 -4.160156 4.25 -3.765625 C 4.25 -3.285156 4.414062 -2.90625 4.75 -2.625 C 5.082031 -2.34375 5.503906 -2.203125 6.015625 -2.203125 Z M 6.015625 -2.203125 "/></g></g></g><g fill="#000000" fill-opacity="1"><g transform="translate(113.963986, 22.258069)"><g><path d="M 7.421875 0.34375 C 6.328125 0.34375 5.367188 0.179688 4.546875 -0.140625 C 3.722656 -0.460938 3.039062 -0.914062 2.5 -1.5 C 1.957031 -2.082031 1.550781 -2.769531 1.28125 -3.5625 C 1.007812 -4.363281 0.875 -5.238281 0.875 -6.1875 C 0.875 -7.1875 1.007812 -8.101562 1.28125 -8.9375 C 1.550781 -9.769531 1.960938 -10.488281 2.515625 -11.09375 C 3.066406 -11.707031 3.742188 -12.179688 4.546875 -12.515625 C 5.347656 -12.859375 6.265625 -13.03125 7.296875 -13.03125 C 8.085938 -13.03125 8.796875 -12.929688 9.421875 -12.734375 C 10.054688 -12.535156 10.609375 -12.253906 11.078125 -11.890625 C 11.546875 -11.523438 11.925781 -11.085938 12.21875 -10.578125 C 12.519531 -10.066406 12.71875 -9.5 12.8125 -8.875 L 9.625 -7.90625 C 9.570312 -8.425781 9.4375 -8.863281 9.21875 -9.21875 C 9.007812 -9.582031 8.726562 -9.851562 8.375 -10.03125 C 8.019531 -10.207031 7.609375 -10.296875 7.140625 -10.296875 C 6.753906 -10.296875 6.394531 -10.21875 6.0625 -10.0625 C 5.726562 -9.914062 5.4375 -9.6875 5.1875 -9.375 C 4.9375 -9.0625 4.738281 -8.65625 4.59375 -8.15625 C 4.445312 -7.65625 4.375 -7.050781 4.375 -6.34375 C 4.375 -5.382812 4.5 -4.609375 4.75 -4.015625 C 5 -3.421875 5.359375 -2.984375 5.828125 -2.703125 C 6.296875 -2.421875 6.84375 -2.28125 7.46875 -2.28125 C 8.101562 -2.28125 8.609375 -2.40625 8.984375 -2.65625 C 9.359375 -2.914062 9.640625 -3.242188 9.828125 -3.640625 C 10.015625 -4.035156 10.125 -4.453125 10.15625 -4.890625 L 13.234375 -4.234375 C 13.171875 -3.609375 13.007812 -3.015625 12.75 -2.453125 C 12.488281 -1.898438 12.117188 -1.410156 11.640625 -0.984375 C 11.171875 -0.566406 10.582031 -0.238281 9.875 0 C 9.175781 0.226562 8.359375 0.34375 7.421875 0.34375 Z M 7.421875 0.34375 "/></g></g></g><g fill="#000000" fill-opacity="1"><g transform="translate(127.582802, 22.258069)"><g><path d="M 1.546875 0 L 1.546875 -17.25 L 5.03125 -17.25 L 5.03125 -13.34375 C 5.03125 -13.03125 5.015625 -12.6875 4.984375 -12.3125 C 4.960938 -11.9375 4.925781 -11.554688 4.875 -11.171875 C 4.832031 -10.785156 4.78125 -10.398438 4.71875 -10.015625 C 4.664062 -9.628906 4.597656 -9.25 4.515625 -8.875 L 5.03125 -8.875 C 5.257812 -9.75 5.546875 -10.492188 5.890625 -11.109375 C 6.234375 -11.734375 6.679688 -12.207031 7.234375 -12.53125 C 7.796875 -12.863281 8.5 -13.03125 9.34375 -13.03125 C 10.195312 -13.03125 10.894531 -12.875 11.4375 -12.5625 C 11.988281 -12.25 12.414062 -11.84375 12.71875 -11.34375 C 13.03125 -10.84375 13.257812 -10.296875 13.40625 -9.703125 C 13.550781 -9.117188 13.640625 -8.546875 13.671875 -7.984375 C 13.710938 -7.421875 13.734375 -6.925781 13.734375 -6.5 L 13.734375 0 L 10.25 0 L 10.25 -6.125 C 10.25 -6.71875 10.207031 -7.257812 10.125 -7.75 C 10.050781 -8.238281 9.925781 -8.660156 9.75 -9.015625 C 9.570312 -9.367188 9.332031 -9.644531 9.03125 -9.84375 C 8.738281 -10.039062 8.375 -10.140625 7.9375 -10.140625 C 7.289062 -10.140625 6.753906 -9.941406 6.328125 -9.546875 C 5.910156 -9.160156 5.59375 -8.632812 5.375 -7.96875 C 5.164062 -7.300781 5.050781 -6.539062 5.03125 -5.6875 L 5.03125 0 Z M 1.546875 0 "/></g></g></g><g clip-path="url(#0f96d1ff06)"><path fill="#007fff" d="M 93.292969 8.3125 C 90.957031 8.3125 89.515625 9.207031 88.777344 10.453125 C 88.042969 11.691406 87.960938 13.1875 87.960938 14.441406 C 87.960938 14.449219 87.960938 14.457031 87.960938 14.464844 C 87.960938 14.480469 87.960938 14.496094 87.960938 14.507812 C 87.960938 14.816406 87.984375 15.085938 88.011719 15.332031 C 87.367188 15.535156 86.894531 16.136719 86.894531 16.839844 C 86.894531 17.691406 87.535156 18.972656 88.496094 18.972656 C 88.578125 18.972656 88.667969 18.964844 88.753906 18.957031 C 89.535156 21.382812 91.46875 23.234375 93.292969 23.234375 C 95.089844 23.234375 97.007812 21.421875 97.828125 18.957031 C 97.917969 18.964844 98.007812 18.972656 98.089844 18.972656 C 99.050781 18.972656 99.6875 17.691406 99.6875 16.839844 C 99.6875 16.140625 99.222656 15.539062 98.574219 15.332031 C 98.601562 15.085938 98.621094 14.820312 98.621094 14.507812 C 98.621094 14.496094 98.621094 14.488281 98.621094 14.476562 C 98.621094 14.464844 98.621094 14.453125 98.621094 14.441406 C 98.621094 13.1875 98.542969 11.691406 97.804688 10.453125 C 97.070312 9.207031 95.628906 8.3125 93.292969 8.3125 Z M 93.292969 9.378906 C 95.378906 9.378906 96.332031 10.050781 96.890625 10.992188 C 97.316406 11.710938 97.445312 12.648438 97.5 13.582031 C 96.65625 13.171875 95.25 12.574219 93.292969 12.574219 C 91.335938 12.574219 89.929688 13.171875 89.085938 13.582031 C 89.140625 12.648438 89.269531 11.710938 89.695312 10.992188 C 90.253906 10.050781 91.207031 9.378906 93.292969 9.378906 Z M 93.292969 12.574219 C 93.574219 12.574219 93.875 12.476562 94.074219 12.269531 C 94.273438 12.054688 94.359375 11.777344 94.359375 11.515625 L 93.292969 11.515625 C 93.292969 11.515625 93.292969 11.511719 93.292969 11.511719 L 93.292969 10.449219 C 93.292969 10.449219 93.292969 10.445312 93.292969 10.445312 L 94.359375 10.445312 C 94.359375 10.1875 94.273438 9.902344 94.074219 9.695312 C 93.871094 9.480469 93.574219 9.382812 93.292969 9.382812 C 93.007812 9.382812 92.714844 9.480469 92.507812 9.695312 C 92.308594 9.902344 92.226562 10.1875 92.226562 10.445312 L 92.226562 11.515625 C 92.226562 11.777344 92.308594 12.054688 92.507812 12.269531 C 92.710938 12.476562 93.007812 12.574219 93.292969 12.574219 Z M 93.292969 13.640625 C 95.234375 13.640625 96.953125 14.449219 97.542969 14.757812 C 97.511719 15.414062 97.378906 15.71875 97.328125 15.765625 C 97.296875 15.792969 97.292969 15.804688 97.210938 15.808594 C 97.132812 15.808594 96.980469 15.785156 96.789062 15.726562 C 96.03125 15.496094 94.753906 14.707031 93.292969 14.707031 C 91.835938 14.707031 90.558594 15.476562 89.792969 15.707031 C 89.605469 15.765625 89.457031 15.785156 89.375 15.78125 C 89.289062 15.777344 89.28125 15.769531 89.253906 15.746094 C 89.207031 15.699219 89.074219 15.398438 89.039062 14.757812 C 89.632812 14.449219 91.351562 13.640625 93.292969 13.640625 Z M 93.292969 15.773438 C 94.347656 15.773438 95.464844 16.4375 96.476562 16.75 C 96.730469 16.824219 96.984375 16.882812 97.257812 16.871094 C 97.53125 16.855469 97.835938 16.757812 98.0625 16.539062 C 98.125 16.480469 98.164062 16.410156 98.210938 16.339844 C 98.453125 16.398438 98.621094 16.59375 98.621094 16.839844 C 98.621094 17.277344 98.261719 17.886719 98.089844 17.90625 C 98.046875 17.90625 97.890625 17.902344 97.585938 17.824219 L 97.089844 17.703125 L 96.90625 18.300781 C 96.296875 20.617188 94.542969 22.171875 93.292969 22.171875 C 92.039062 22.171875 90.289062 20.617188 89.679688 18.304688 L 89.5 17.699219 L 89.003906 17.824219 C 88.695312 17.902344 88.539062 17.90625 88.496094 17.90625 C 88.324219 17.886719 87.960938 17.277344 87.960938 16.839844 C 87.960938 16.589844 88.140625 16.394531 88.382812 16.339844 C 88.429688 16.402344 88.46875 16.46875 88.527344 16.523438 C 88.753906 16.734375 89.054688 16.835938 89.328125 16.847656 C 89.597656 16.855469 89.847656 16.808594 90.101562 16.730469 C 91.109375 16.429688 92.234375 15.773438 93.292969 15.773438 Z M 93.292969 15.773438 " fill-opacity="1" fill-rule="nonzero"/></g></svg>