<svg xmlns="http://www.w3.org/2000/svg" xmlns:xlink="http://www.w3.org/1999/xlink" width="200" zoomAndPan="magnify" viewBox="0 0 150 30.000001" height="40" preserveAspectRatio="xMidYMid meet" version="1.0"><defs><g/><clipPath id="0a51b21d7b"><path d="M 86.96875 8.894531 L 99.523438 8.894531 L 99.523438 23.726562 L 86.96875 23.726562 Z M 86.96875 8.894531 " clip-rule="nonzero"/></clipPath></defs><g fill="#000000" fill-opacity="1"><g transform="translate(3.95035, 23.104836)"><g><path d="M 10.109375 0.296875 C 8.378906 0.296875 6.816406 -0.078125 5.421875 -0.828125 C 4.035156 -1.578125 2.941406 -2.617188 2.140625 -3.953125 C 1.335938 -5.285156 0.9375 -6.789062 0.9375 -8.46875 C 0.9375 -10.144531 1.335938 -11.644531 2.140625 -12.96875 C 2.941406 -14.300781 4.035156 -15.34375 5.421875 -16.09375 C 6.816406 -16.84375 8.390625 -17.21875 10.140625 -17.21875 C 11.597656 -17.21875 12.921875 -16.957031 14.109375 -16.4375 C 15.296875 -15.925781 16.289062 -15.1875 17.09375 -14.21875 L 14.578125 -11.90625 C 13.441406 -13.226562 12.023438 -13.890625 10.328125 -13.890625 C 9.273438 -13.890625 8.335938 -13.65625 7.515625 -13.1875 C 6.691406 -12.726562 6.050781 -12.085938 5.59375 -11.265625 C 5.132812 -10.441406 4.90625 -9.507812 4.90625 -8.46875 C 4.90625 -7.414062 5.132812 -6.476562 5.59375 -5.65625 C 6.050781 -4.832031 6.691406 -4.191406 7.515625 -3.734375 C 8.335938 -3.273438 9.273438 -3.046875 10.328125 -3.046875 C 12.023438 -3.046875 13.441406 -3.71875 14.578125 -5.0625 L 17.09375 -2.734375 C 16.289062 -1.742188 15.289062 -0.988281 14.09375 -0.46875 C 12.90625 0.0390625 11.578125 0.296875 10.109375 0.296875 Z M 10.109375 0.296875 "/></g></g></g><g fill="#000000" fill-opacity="1"><g transform="translate(21.681474, 23.104836)"><g><path d="M 7.9375 0.1875 C 6.5625 0.1875 5.328125 -0.0976562 4.234375 -0.671875 C 3.148438 -1.242188 2.300781 -2.035156 1.6875 -3.046875 C 1.082031 -4.066406 0.78125 -5.21875 0.78125 -6.5 C 0.78125 -7.789062 1.082031 -8.941406 1.6875 -9.953125 C 2.300781 -10.972656 3.148438 -11.769531 4.234375 -12.34375 C 5.328125 -12.914062 6.5625 -13.203125 7.9375 -13.203125 C 9.300781 -13.203125 10.523438 -12.914062 11.609375 -12.34375 C 12.691406 -11.769531 13.535156 -10.972656 14.140625 -9.953125 C 14.753906 -8.941406 15.0625 -7.789062 15.0625 -6.5 C 15.0625 -5.21875 14.753906 -4.066406 14.140625 -3.046875 C 13.535156 -2.035156 12.691406 -1.242188 11.609375 -0.671875 C 10.523438 -0.0976562 9.300781 0.1875 7.9375 0.1875 Z M 7.9375 -2.90625 C 8.90625 -2.90625 9.695312 -3.226562 10.3125 -3.875 C 10.9375 -4.53125 11.25 -5.40625 11.25 -6.5 C 11.25 -7.601562 10.9375 -8.476562 10.3125 -9.125 C 9.695312 -9.78125 8.90625 -10.109375 7.9375 -10.109375 C 6.96875 -10.109375 6.164062 -9.78125 5.53125 -9.125 C 4.90625 -8.476562 4.59375 -7.601562 4.59375 -6.5 C 4.59375 -5.40625 4.90625 -4.53125 5.53125 -3.875 C 6.164062 -3.226562 6.96875 -2.90625 7.9375 -2.90625 Z M 7.9375 -2.90625 "/></g></g></g><g fill="#000000" fill-opacity="1"><g transform="translate(37.525795, 23.104836)"><g><path d="M 9.4375 -13.203125 C 10.644531 -13.203125 11.742188 -12.921875 12.734375 -12.359375 C 13.722656 -11.804688 14.5 -11.023438 15.0625 -10.015625 C 15.632812 -9.015625 15.921875 -7.84375 15.921875 -6.5 C 15.921875 -5.164062 15.632812 -3.992188 15.0625 -2.984375 C 14.5 -1.972656 13.722656 -1.191406 12.734375 -0.640625 C 11.742188 -0.0859375 10.644531 0.1875 9.4375 0.1875 C 7.769531 0.1875 6.460938 -0.332031 5.515625 -1.375 L 5.515625 4.6875 L 1.734375 4.6875 L 1.734375 -13.015625 L 5.34375 -13.015625 L 5.34375 -11.515625 C 6.28125 -12.640625 7.644531 -13.203125 9.4375 -13.203125 Z M 8.78125 -2.90625 C 9.75 -2.90625 10.539062 -3.226562 11.15625 -3.875 C 11.78125 -4.53125 12.09375 -5.40625 12.09375 -6.5 C 12.09375 -7.601562 11.78125 -8.476562 11.15625 -9.125 C 10.539062 -9.78125 9.75 -10.109375 8.78125 -10.109375 C 7.8125 -10.109375 7.015625 -9.78125 6.390625 -9.125 C 5.773438 -8.476562 5.46875 -7.601562 5.46875 -6.5 C 5.46875 -5.40625 5.773438 -4.53125 6.390625 -3.875 C 7.015625 -3.226562 7.8125 -2.90625 8.78125 -2.90625 Z M 8.78125 -2.90625 "/></g></g></g><g fill="#000000" fill-opacity="1"><g transform="translate(54.216762, 23.104836)"><g><path d="M 14.65625 -13.015625 L 8.78125 0.796875 C 8.1875 2.296875 7.445312 3.351562 6.5625 3.96875 C 5.6875 4.582031 4.628906 4.890625 3.390625 4.890625 C 2.710938 4.890625 2.039062 4.78125 1.375 4.5625 C 0.71875 4.351562 0.179688 4.066406 -0.234375 3.703125 L 1.140625 1.015625 C 1.429688 1.273438 1.765625 1.476562 2.140625 1.625 C 2.515625 1.769531 2.890625 1.84375 3.265625 1.84375 C 3.785156 1.84375 4.203125 1.71875 4.515625 1.46875 C 4.835938 1.21875 5.128906 0.800781 5.390625 0.21875 L 5.4375 0.09375 L -0.1875 -13.015625 L 3.703125 -13.015625 L 7.359375 -4.1875 L 11.03125 -13.015625 Z M 14.65625 -13.015625 "/></g></g></g><g fill="#000000" fill-opacity="1"><g transform="translate(68.682266, 23.104836)"><g><path d="M 10.109375 0.296875 C 8.378906 0.296875 6.816406 -0.078125 5.421875 -0.828125 C 4.035156 -1.578125 2.941406 -2.617188 2.140625 -3.953125 C 1.335938 -5.285156 0.9375 -6.789062 0.9375 -8.46875 C 0.9375 -10.144531 1.335938 -11.644531 2.140625 -12.96875 C 2.941406 -14.300781 4.035156 -15.34375 5.421875 -16.09375 C 6.816406 -16.84375 8.390625 -17.21875 10.140625 -17.21875 C 11.597656 -17.21875 12.921875 -16.957031 14.109375 -16.4375 C 15.296875 -15.925781 16.289062 -15.1875 17.09375 -14.21875 L 14.578125 -11.90625 C 13.441406 -13.226562 12.023438 -13.890625 10.328125 -13.890625 C 9.273438 -13.890625 8.335938 -13.65625 7.515625 -13.1875 C 6.691406 -12.726562 6.050781 -12.085938 5.59375 -11.265625 C 5.132812 -10.441406 4.90625 -9.507812 4.90625 -8.46875 C 4.90625 -7.414062 5.132812 -6.476562 5.59375 -5.65625 C 6.050781 -4.832031 6.691406 -4.191406 7.515625 -3.734375 C 8.335938 -3.273438 9.273438 -3.046875 10.328125 -3.046875 C 12.023438 -3.046875 13.441406 -3.71875 14.578125 -5.0625 L 17.09375 -2.734375 C 16.289062 -1.742188 15.289062 -0.988281 14.09375 -0.46875 C 12.90625 0.0390625 11.578125 0.296875 10.109375 0.296875 Z M 10.109375 0.296875 "/></g></g></g><g fill="#000000" fill-opacity="1"><g transform="translate(86.414433, 23.104836)"><g/></g></g><g fill="#000000" fill-opacity="1"><g transform="translate(93.260149, 23.104836)"><g/></g></g><g fill="#000000" fill-opacity="1"><g transform="translate(100.108356, 23.104836)"><g><path d="M 6.984375 -13.203125 C 9.003906 -13.203125 10.550781 -12.722656 11.625 -11.765625 C 12.707031 -10.804688 13.25 -9.359375 13.25 -7.421875 L 13.25 0 L 9.71875 0 L 9.71875 -1.625 C 9.007812 -0.414062 7.6875 0.1875 5.75 0.1875 C 4.75 0.1875 3.882812 0.0195312 3.15625 -0.3125 C 2.425781 -0.65625 1.863281 -1.125 1.46875 -1.71875 C 1.082031 -2.3125 0.890625 -2.988281 0.890625 -3.75 C 0.890625 -4.957031 1.34375 -5.90625 2.25 -6.59375 C 3.164062 -7.289062 4.578125 -7.640625 6.484375 -7.640625 L 9.484375 -7.640625 C 9.484375 -8.460938 9.234375 -9.09375 8.734375 -9.53125 C 8.234375 -9.976562 7.484375 -10.203125 6.484375 -10.203125 C 5.785156 -10.203125 5.101562 -10.09375 4.4375 -9.875 C 3.769531 -9.65625 3.203125 -9.363281 2.734375 -9 L 1.375 -11.640625 C 2.082031 -12.140625 2.929688 -12.523438 3.921875 -12.796875 C 4.921875 -13.066406 5.941406 -13.203125 6.984375 -13.203125 Z M 6.703125 -2.34375 C 7.347656 -2.34375 7.921875 -2.488281 8.421875 -2.78125 C 8.921875 -3.082031 9.273438 -3.523438 9.484375 -4.109375 L 9.484375 -5.4375 L 6.890625 -5.4375 C 5.347656 -5.4375 4.578125 -4.929688 4.578125 -3.921875 C 4.578125 -3.429688 4.765625 -3.046875 5.140625 -2.765625 C 5.515625 -2.484375 6.035156 -2.34375 6.703125 -2.34375 Z M 6.703125 -2.34375 "/></g></g></g><g fill="#000000" fill-opacity="1"><g transform="translate(115.033464, 23.104836)"><g><path d="M 8.03125 0.1875 C 6.644531 0.1875 5.398438 -0.0976562 4.296875 -0.671875 C 3.191406 -1.242188 2.328125 -2.035156 1.703125 -3.046875 C 1.085938 -4.066406 0.78125 -5.21875 0.78125 -6.5 C 0.78125 -7.789062 1.085938 -8.941406 1.703125 -9.953125 C 2.328125 -10.972656 3.191406 -11.769531 4.296875 -12.34375 C 5.398438 -12.914062 6.644531 -13.203125 8.03125 -13.203125 C 9.40625 -13.203125 10.601562 -12.914062 11.625 -12.34375 C 12.644531 -11.769531 13.390625 -10.953125 13.859375 -9.890625 L 10.9375 -8.328125 C 10.257812 -9.515625 9.28125 -10.109375 8 -10.109375 C 7.019531 -10.109375 6.207031 -9.785156 5.5625 -9.140625 C 4.914062 -8.492188 4.59375 -7.613281 4.59375 -6.5 C 4.59375 -5.394531 4.914062 -4.519531 5.5625 -3.875 C 6.207031 -3.226562 7.019531 -2.90625 8 -2.90625 C 9.289062 -2.90625 10.269531 -3.5 10.9375 -4.6875 L 13.859375 -3.09375 C 13.390625 -2.0625 12.644531 -1.253906 11.625 -0.671875 C 10.601562 -0.0976562 9.40625 0.1875 8.03125 0.1875 Z M 8.03125 0.1875 "/></g></g></g><g fill="#000000" fill-opacity="1"><g transform="translate(129.329639, 23.104836)"><g><path d="M 9.65625 -13.203125 C 11.257812 -13.203125 12.554688 -12.71875 13.546875 -11.75 C 14.546875 -10.78125 15.046875 -9.347656 15.046875 -7.453125 L 15.046875 0 L 11.265625 0 L 11.265625 -6.875 C 11.265625 -7.90625 11.039062 -8.671875 10.59375 -9.171875 C 10.144531 -9.679688 9.492188 -9.9375 8.640625 -9.9375 C 7.679688 -9.9375 6.921875 -9.640625 6.359375 -9.046875 C 5.796875 -8.460938 5.515625 -7.59375 5.515625 -6.4375 L 5.515625 0 L 1.734375 0 L 1.734375 -17.953125 L 5.515625 -17.953125 L 5.515625 -11.65625 C 6.015625 -12.15625 6.617188 -12.535156 7.328125 -12.796875 C 8.035156 -13.066406 8.8125 -13.203125 9.65625 -13.203125 Z M 9.65625 -13.203125 "/></g></g></g><g clip-path="url(#0a51b21d7b)"><path fill="#000000" d="M 93.246094 8.894531 C 90.953125 8.894531 89.539062 9.785156 88.816406 11.019531 C 88.09375 12.253906 88.015625 13.742188 88.015625 14.988281 C 88.015625 14.996094 88.015625 15.003906 88.015625 15.011719 C 88.015625 15.023438 88.015625 15.039062 88.015625 15.050781 C 88.015625 15.359375 88.035156 15.628906 88.066406 15.871094 C 87.433594 16.074219 86.96875 16.671875 86.96875 17.371094 C 86.96875 18.214844 87.597656 19.488281 88.539062 19.488281 C 88.621094 19.488281 88.707031 19.480469 88.792969 19.472656 C 89.5625 21.886719 91.457031 23.726562 93.246094 23.726562 C 95.011719 23.726562 96.890625 21.921875 97.695312 19.472656 C 97.785156 19.480469 97.871094 19.488281 97.953125 19.488281 C 98.898438 19.488281 99.523438 18.214844 99.523438 17.371094 C 99.523438 16.675781 99.0625 16.078125 98.425781 15.871094 C 98.457031 15.628906 98.476562 15.363281 98.476562 15.050781 C 98.476562 15.039062 98.476562 15.03125 98.476562 15.019531 C 98.476562 15.011719 98.476562 15 98.476562 14.988281 C 98.476562 13.742188 98.398438 12.253906 97.675781 11.019531 C 96.953125 9.785156 95.539062 8.894531 93.246094 8.894531 Z M 93.246094 9.953125 C 95.292969 9.953125 96.230469 10.625 96.777344 11.558594 C 97.191406 12.269531 97.320312 13.203125 97.371094 14.132812 C 96.546875 13.722656 95.167969 13.132812 93.246094 13.132812 C 91.324219 13.132812 89.945312 13.722656 89.121094 14.132812 C 89.171875 13.203125 89.300781 12.269531 89.714844 11.558594 C 90.265625 10.625 91.199219 9.953125 93.246094 9.953125 Z M 93.246094 13.132812 C 93.523438 13.132812 93.816406 13.03125 94.015625 12.824219 C 94.210938 12.613281 94.292969 12.335938 94.292969 12.078125 L 93.246094 12.078125 C 93.246094 12.078125 93.246094 12.074219 93.246094 12.074219 L 93.246094 11.015625 C 93.246094 11.015625 93.246094 11.011719 93.246094 11.011719 L 94.292969 11.011719 C 94.292969 10.757812 94.210938 10.476562 94.015625 10.269531 C 93.8125 10.058594 93.523438 9.957031 93.246094 9.957031 C 92.96875 9.957031 92.679688 10.058594 92.476562 10.269531 C 92.28125 10.476562 92.199219 10.757812 92.199219 11.011719 L 92.199219 12.078125 C 92.199219 12.335938 92.28125 12.613281 92.476562 12.824219 C 92.675781 13.03125 92.96875 13.132812 93.246094 13.132812 Z M 93.246094 14.191406 C 95.148438 14.191406 96.835938 14.996094 97.417969 15.300781 C 97.386719 15.953125 97.253906 16.257812 97.207031 16.300781 C 97.175781 16.332031 97.171875 16.339844 97.089844 16.34375 C 97.011719 16.34375 96.867188 16.324219 96.679688 16.265625 C 95.933594 16.035156 94.679688 15.25 93.246094 15.25 C 91.816406 15.25 90.5625 16.015625 89.8125 16.246094 C 89.628906 16.300781 89.484375 16.324219 89.402344 16.320312 C 89.320312 16.316406 89.3125 16.308594 89.28125 16.28125 C 89.238281 16.238281 89.109375 15.9375 89.074219 15.300781 C 89.65625 14.996094 91.34375 14.191406 93.246094 14.191406 Z M 93.246094 16.3125 C 94.28125 16.3125 95.378906 16.96875 96.371094 17.28125 C 96.621094 17.355469 96.871094 17.410156 97.136719 17.398438 C 97.40625 17.386719 97.703125 17.289062 97.925781 17.074219 C 97.984375 17.015625 98.027344 16.945312 98.070312 16.875 C 98.308594 16.933594 98.476562 17.125 98.476562 17.371094 C 98.476562 17.804688 98.121094 18.410156 97.953125 18.429688 C 97.914062 18.429688 97.757812 18.425781 97.457031 18.347656 L 96.972656 18.226562 L 96.792969 18.824219 C 96.191406 21.125 94.472656 22.667969 93.246094 22.667969 C 92.015625 22.667969 90.300781 21.125 89.699219 18.828125 L 89.523438 18.222656 L 89.039062 18.347656 C 88.734375 18.425781 88.582031 18.429688 88.539062 18.429688 C 88.371094 18.410156 88.015625 17.804688 88.015625 17.371094 C 88.015625 17.121094 88.191406 16.925781 88.429688 16.875 C 88.472656 16.9375 88.515625 17.003906 88.570312 17.054688 C 88.792969 17.265625 89.085938 17.367188 89.355469 17.378906 C 89.621094 17.386719 89.867188 17.335938 90.117188 17.261719 C 91.105469 16.960938 92.207031 16.3125 93.246094 16.3125 Z M 93.246094 16.3125 " fill-opacity="1" fill-rule="nonzero"/></g></svg>